<svg xmlns="http://www.w3.org/2000/svg" aria-hidden="true" style="position:absolute;width:0;height:0;overflow:hidden">
    <defs>
        <symbol id="icon-instagram" viewBox="0 0 32 32">
            <path
                d="M31.969 9.408c-.075-1.7-.35-2.869-.744-3.882a7.803 7.803 0 0 0-1.85-2.838A7.867 7.867 0 0 0 26.543.844C25.524.45 24.361.175 22.661.1 20.948.019 20.404 0 16.06 0s-4.888.019-6.595.094c-1.7.075-2.869.35-3.882.744a7.803 7.803 0 0 0-2.838 1.85A7.867 7.867 0 0 0 .901 5.52C.507 6.539.232 7.702.157 9.402c-.081 1.713-.1 2.257-.1 6.601s.019 4.888.094 6.595c.075 1.7.35 2.869.744 3.882a7.895 7.895 0 0 0 1.85 2.838 7.867 7.867 0 0 0 2.832 1.844c1.019.394 2.182.669 3.882.744 1.706.075 2.25.094 6.595.094s4.888-.019 6.595-.094c1.7-.075 2.869-.35 3.882-.744a8.181 8.181 0 0 0 4.682-4.682c.394-1.019.669-2.182.744-3.882.075-1.707.094-2.25.094-6.595s-.006-4.888-.081-6.595zm-2.882 13.065c-.069 1.563-.331 2.407-.55 2.969a5.31 5.31 0 0 1-3.038 3.038c-.563.219-1.413.481-2.969.55-1.688.075-2.194.094-6.464.094s-4.782-.019-6.464-.094c-1.563-.069-2.407-.331-2.969-.55a4.926 4.926 0 0 1-1.838-1.194 4.974 4.974 0 0 1-1.194-1.838c-.219-.563-.481-1.413-.55-2.969-.075-1.688-.094-2.194-.094-6.464s.019-4.782.094-6.464c.069-1.563.331-2.407.55-2.969a4.868 4.868 0 0 1 1.2-1.838A4.974 4.974 0 0 1 6.639 3.55c.563-.219 1.413-.481 2.969-.55 1.688-.075 2.194-.094 6.464-.094 4.276 0 4.782.019 6.464.094 1.563.069 2.407.331 2.969.55a4.914 4.914 0 0 1 1.838 1.194 4.974 4.974 0 0 1 1.194 1.838c.219.563.481 1.413.55 2.969.075 1.688.094 2.194.094 6.464s-.019 4.77-.094 6.458z" />
            <path
                d="M16.059 7.783c-4.538 0-8.22 3.682-8.22 8.22s3.682 8.22 8.22 8.22 8.22-3.682 8.22-8.22-3.682-8.22-8.22-8.22zm0 13.552a5.333 5.333 0 0 1 0-10.664 5.333 5.333 0 0 1 0 10.664zM26.524 7.458a1.919 1.919 0 1 1-3.838 0 1.919 1.919 0 0 1 3.838 0z" />
        </symbol>
        <symbol id="icon-twitter" viewBox="0 0 32 32">
            <path
                d="M32 6.078c-1.19.522-2.458.868-3.78 1.036a6.523 6.523 0 0 0 2.886-3.626 13.11 13.11 0 0 1-4.16 1.588A6.574 6.574 0 0 0 22.154 3c-3.632 0-6.556 2.948-6.556 6.562 0 .52.044 1.02.152 1.496-5.454-.266-10.28-2.88-13.522-6.862a6.605 6.605 0 0 0-.898 3.316 6.57 6.57 0 0 0 2.914 5.452 6.479 6.479 0 0 1-2.964-.808v.072c0 3.188 2.274 5.836 5.256 6.446a6.548 6.548 0 0 1-1.72.216 5.8 5.8 0 0 1-1.242-.112c.85 2.598 3.262 4.508 6.13 4.57a13.182 13.182 0 0 1-8.134 2.798c-.538 0-1.054-.024-1.57-.09A18.469 18.469 0 0 0 10.064 29c12.072 0 18.672-10 18.672-18.668 0-.29-.01-.57-.024-.848A13.087 13.087 0 0 0 32 6.078z" />
        </symbol>
        <symbol id="icon-facebook" viewBox="0 0 32 32">
            <path
                d="M21.329 5.313h2.921V.225C23.746.156 22.013 0 19.994 0c-4.212 0-7.097 2.649-7.097 7.519V12H8.249v5.688h4.648V32h5.699V17.689h4.46l.708-5.688h-5.169V8.082c.001-1.644.444-2.769 2.735-2.769z" />
        </symbol>

        <symbol id="icon-mobile-menu" viewBox="0 0 32 32">
            <path d="M4.799 8.001c0-0.424 0.169-0.831 0.469-1.131s0.707-0.469 1.131-0.469h19.2c0.424 0 0.831 0.169 1.131 0.469s0.469 0.707 0.469 1.131-0.169 0.831-0.469 1.131c-0.3 0.3-0.707 0.469-1.131 0.469h-19.2c-0.424 0-0.831-0.169-1.131-0.469s-0.469-0.707-0.469-1.131z"></path>
            <path d="M4.799 16.001c0-0.424 0.169-0.831 0.469-1.131s0.707-0.469 1.131-0.469h19.2c0.424 0 0.831 0.169 1.131 0.469s0.469 0.707 0.469 1.131c0 0.424-0.169 0.831-0.469 1.131s-0.707 0.469-1.131 0.469h-19.2c-0.424 0-0.831-0.169-1.131-0.469s-0.469-0.707-0.469-1.131z"></path>
            <path d="M4.799 24.001c0-0.424 0.169-0.831 0.469-1.131s0.707-0.469 1.131-0.469h19.2c0.424 0 0.831 0.169 1.131 0.469s0.469 0.707 0.469 1.131c0 0.424-0.169 0.831-0.469 1.131s-0.707 0.469-1.131 0.469h-19.2c-0.424 0-0.831-0.169-1.131-0.469s-0.469-0.707-0.469-1.131z"></path>
        </symbol>

        <symbol id="right" viewBox="0 0 32 32">
            <path d="M1.16669 1.33329L12.8334 13L1.16669 24.6666" stroke="#222222" stroke-width="2" stroke-linecap="round" stroke-linejoin="round"/>
        </symbol>
        <symbol id="left" viewBox="0 0 32 32">
            <path d="M12.8333 24.6666L1.16664 12.9999L12.8333 1.33325" stroke="#222222" stroke-width="2" stroke-linecap="round" stroke-linejoin="round"/>
        </symbol>

        <symbol id="airBnb" viewBox="0 0 32 32">
            <path d="M25.7996 20.3433C25.6584 20.0022 25.5261 19.6435 25.3849 19.3373L24.732 17.8763L24.7055 17.8501C22.7643 13.651 20.6908 9.38183 18.4937 5.18268L18.4055 5.00772C18.1849 4.59655 17.9643 4.14165 17.7349 3.72173C17.4525 3.22308 17.179 2.68944 16.729 2.18205C16.2904 1.65114 15.7383 1.22341 15.1127 0.9297C14.4871 0.635993 13.8036 0.483643 13.1114 0.483643C12.4192 0.483643 11.7356 0.635993 11.11 0.9297C10.4844 1.22341 9.93235 1.65114 9.49372 2.18205C9.07901 2.68944 8.77019 3.22308 8.48783 3.72173C8.26724 4.17664 8.04666 4.6228 7.81724 5.03396L7.72901 5.20893C5.56724 9.40807 3.45842 13.6772 1.51724 17.8763L1.4643 17.9288C1.27019 18.3837 1.04077 18.8561 0.820186 19.3635C0.679009 19.6697 0.537833 20.0022 0.396656 20.3696C0.0155087 21.3317 -0.106204 22.3757 0.0435143 23.3986C0.193232 24.4216 0.609213 25.3882 1.25046 26.2033C1.89171 27.0183 2.73609 27.6536 3.70038 28.0465C4.66468 28.4395 5.71561 28.5765 6.7496 28.4442C7.74089 28.3148 8.69543 27.9874 9.55548 27.4819C10.7025 26.8433 11.8055 25.916 13.0408 24.5775C14.2761 25.916 15.4055 26.8433 16.5261 27.4906C17.6037 28.1177 18.824 28.4639 20.0731 28.4967C21.5196 28.5026 22.9194 27.9895 24.0141 27.0521C25.1088 26.1147 25.8245 24.8162 26.029 23.3965C26.2653 22.3762 26.1854 21.309 25.7996 20.3346V20.3433ZM13.129 21.7955C11.6114 19.8709 10.6231 18.1038 10.2878 16.5904C10.1489 16.0295 10.119 15.4476 10.1996 14.8757C10.2614 14.4295 10.429 14.0359 10.6584 13.7034C11.1878 12.9424 12.1143 12.4699 13.129 12.4699C13.6109 12.4554 14.0889 12.5596 14.5201 12.7734C14.9513 12.9871 15.3222 13.3037 15.5996 13.6947C15.829 14.0446 15.9967 14.4295 16.0496 14.8757C16.1378 15.3831 16.1025 15.9692 15.9614 16.5904C15.6261 18.0776 14.6378 19.8622 13.129 21.7955ZM24.3702 23.0903C24.2699 23.8111 23.9809 24.4933 23.532 25.0689C23.083 25.6444 22.4898 26.0934 21.8114 26.3709C21.1408 26.6508 20.3996 26.7295 19.6761 26.6508C18.9702 26.5633 18.2643 26.3359 17.5408 25.916C16.3395 25.1798 15.2592 24.2652 14.3378 23.204C16.1908 20.9295 17.3114 18.8561 17.7349 17.0103C17.9378 16.1355 17.9643 15.3481 17.8761 14.622C17.7659 13.9338 17.507 13.2773 17.1172 12.6974C16.6722 12.0686 16.0781 11.5579 15.3873 11.2101C14.6965 10.8623 13.9301 10.6881 13.1555 10.7028C11.5231 10.7028 10.0672 11.4552 9.18489 12.6887C8.78769 13.2671 8.53099 13.9288 8.43489 14.622C8.32019 15.3569 8.34666 16.1704 8.57607 17.0103C8.9996 18.8561 10.1467 20.9557 11.9731 23.2215C11.0674 24.3029 9.98462 25.2256 8.77018 25.9509C8.03783 26.3709 7.34077 26.5896 6.63489 26.677C5.53714 26.8165 4.42826 26.5207 3.54927 25.8539C2.67028 25.1872 2.09223 24.2035 1.94077 23.1165C1.85254 22.4167 1.9143 21.7168 2.19666 20.9295C2.28489 20.6495 2.41724 20.3696 2.55842 20.0372C2.75254 19.5822 2.98195 19.1098 3.20254 18.6374L3.23783 18.5762C5.14371 14.4033 7.22607 10.1429 9.38783 5.97002L9.47607 5.79506C9.69666 5.37515 9.91724 4.92899 10.1467 4.50907C10.3761 4.06291 10.6231 3.63425 10.9408 3.28432C11.2157 2.95891 11.5593 2.6972 11.9473 2.51764C12.3352 2.33808 12.7582 2.24502 13.1864 2.24502C13.6145 2.24502 14.0375 2.33808 14.4255 2.51764C14.8134 2.6972 15.157 2.95891 15.432 3.28432C15.7408 3.63425 15.9967 4.06291 16.2261 4.50907C16.4467 4.92899 16.6672 5.38389 16.8967 5.79506L16.9849 5.97002C19.1378 10.1429 21.2202 14.4033 23.1614 18.5762L23.1878 18.6024C23.4172 19.0574 23.6114 19.5648 23.8319 20.0022C23.9731 20.3433 24.1143 20.6145 24.2025 20.9032C24.3702 21.6906 24.4584 22.3904 24.3702 23.0903ZM36.6525 21.6031C35.9876 21.6127 35.3291 21.4738 34.7258 21.1967C34.1224 20.9195 33.5897 20.5113 33.1672 20.0022C32.2179 18.9173 31.714 17.5186 31.7555 16.083C31.741 14.6161 32.2611 13.1933 33.2202 12.0763C33.6638 11.5607 34.2161 11.1478 34.8381 10.8666C35.4601 10.5855 36.1366 10.443 36.8202 10.4491C37.4634 10.4317 38.1004 10.5767 38.6715 10.8705C39.2426 11.1643 39.729 11.5973 40.0849 12.1288L40.1731 10.7553H42.7496V21.3231H40.1643L40.0761 19.7835C39.7092 20.3509 39.202 20.816 38.6028 21.1344C38.0037 21.4529 37.3323 21.6142 36.6525 21.6031ZM37.3231 19.0836C37.8349 19.0836 38.2849 18.9436 38.7084 18.6899C39.0967 18.41 39.4143 18.0426 39.6614 17.5964C39.8819 17.1502 39.9967 16.6166 39.9967 16.0217C40.0311 15.505 39.9296 14.9884 39.7023 14.5222C39.4749 14.0561 39.1294 13.6564 38.6996 13.3623C38.2866 13.1071 37.8097 12.9719 37.3231 12.9719C36.8365 12.9719 36.3597 13.1071 35.9467 13.3623C35.5584 13.6422 35.2408 14.0096 34.9937 14.4558C34.7604 14.9478 34.6456 15.4869 34.6584 16.0305C34.624 16.5471 34.7255 17.0638 34.9528 17.53C35.1802 17.9961 35.5256 18.3958 35.9555 18.6899C36.3702 18.9436 36.8202 19.0836 37.3231 19.0836ZM47.1614 7.90338C47.1614 8.20957 47.1084 8.48951 46.9672 8.71696C46.8261 8.93567 46.6319 9.13688 46.3761 9.27685C46.1202 9.41682 45.8467 9.46931 45.5643 9.46931C45.2819 9.46931 44.9996 9.41682 44.7437 9.27685C44.5017 9.14327 44.2982 8.95053 44.1525 8.71696C44.0159 8.46775 43.9489 8.18688 43.9584 7.90338C43.9584 7.58844 44.0202 7.3085 44.1525 7.0898C44.2937 6.82735 44.4967 6.66988 44.7437 6.52991C44.9996 6.38994 45.2731 6.3287 45.5643 6.3287C45.8452 6.32228 46.1229 6.38824 46.3703 6.52011C46.6178 6.65198 46.8265 6.84526 46.9761 7.08105C47.1045 7.3361 47.1681 7.6184 47.1614 7.90338ZM44.1614 21.2881V10.7378H46.9672V21.3056H44.1525L44.1614 21.2881ZM54.4672 13.5022V13.5372C54.3349 13.476 54.1584 13.4497 54.0261 13.4235C53.8496 13.3885 53.7084 13.3885 53.5408 13.3885C52.7555 13.3885 52.1643 13.616 51.7761 14.0884C51.3525 14.5695 51.1584 15.2431 51.1584 16.1092V21.2969H48.3437V10.7291H50.929L51.0172 12.33C51.2996 11.7701 51.6349 11.3502 52.1114 11.0352C52.5853 10.7292 53.1433 10.5764 53.7084 10.5978C53.9114 10.5978 54.1055 10.6153 54.2731 10.6503C54.3614 10.6766 54.4143 10.6766 54.4672 10.7028V13.5022ZM55.5966 21.2881V6.39869H58.4025V12.085C58.7996 11.5776 59.2496 11.184 59.8143 10.8778C60.7083 10.4432 61.7239 10.3199 62.6972 10.5278C63.6706 10.7358 64.5448 11.2628 65.179 12.0238C66.1305 13.1108 66.6344 14.5131 66.5908 15.9517C66.6053 17.4186 66.0852 18.8414 65.1261 19.9584C64.6824 20.474 64.1302 20.8869 63.5082 21.1681C62.8862 21.4492 62.2096 21.5917 61.5261 21.5856C60.8829 21.603 60.2458 21.458 59.6747 21.1642C59.1036 20.8704 58.6172 20.4374 58.2614 19.9059L58.1731 21.2794L55.5966 21.3056V21.2881ZM61.0231 19.0836C61.5261 19.0836 61.9761 18.9436 62.3996 18.6899C62.7878 18.41 63.1055 18.0426 63.3525 17.5964C63.582 17.1502 63.6878 16.6166 63.6878 16.0217C63.6878 15.4356 63.582 14.902 63.3525 14.4558C63.1208 14.0256 62.7953 13.652 62.3996 13.3623C61.9866 13.1071 61.5097 12.9719 61.0231 12.9719C60.5365 12.9719 60.0597 13.1071 59.6467 13.3623C59.2496 13.6422 58.9408 14.0096 58.6849 14.4558C58.4516 14.9478 58.3368 15.4869 58.3496 16.0305C58.3152 16.5471 58.4166 17.0638 58.644 17.53C58.8713 17.9961 59.2168 18.3958 59.6467 18.6899C60.0614 18.9436 60.5114 19.0836 61.0231 19.0836ZM67.6496 21.2969V10.7291H70.2349L70.3231 12.1025C70.648 11.576 71.1089 11.1452 71.658 10.8545C72.2072 10.5638 72.8247 10.4239 73.4467 10.4491C74.1579 10.4369 74.857 10.6329 75.4565 11.0126C76.056 11.3923 76.5293 11.9387 76.8172 12.5837C77.1261 13.2485 77.2937 14.0709 77.2937 14.9894V21.3231H74.479V15.3569C74.479 14.622 74.3114 14.0446 73.9761 13.616C73.6408 13.196 73.1819 12.9686 72.5996 12.9686C72.1761 12.9686 71.8055 13.0561 71.479 13.2485C71.1702 13.4497 70.9143 13.7034 70.7202 14.0621C70.5239 14.4247 70.4266 14.8318 70.4378 15.2431V21.2969H67.6496ZM78.6967 21.2969V6.38994H81.5114V12.0763C81.8926 11.5661 82.3886 11.151 82.9599 10.8639C83.5312 10.5769 84.1621 10.4259 84.8025 10.4229C85.4674 10.4132 86.126 10.5521 86.7293 10.8293C87.3327 11.1064 87.8653 11.5147 88.2878 12.0238C89.2325 13.1108 89.7329 14.5088 89.6908 15.943C89.7061 17.41 89.1859 18.8331 88.2261 19.9497C87.7824 20.4653 87.2302 20.8782 86.6082 21.1593C85.9862 21.4404 85.3096 21.583 84.6261 21.5768C83.9829 21.5943 83.3458 21.4493 82.7747 21.1555C82.2036 20.8616 81.7172 20.4286 81.3614 19.8972L81.282 21.2707L78.6967 21.2969ZM84.1496 19.0836C84.6614 19.0836 85.1114 18.9436 85.5261 18.6899C85.9231 18.41 86.2319 18.0426 86.4878 17.5964C86.7084 17.1502 86.8231 16.6166 86.8231 16.0217C86.8575 15.505 86.7561 14.9884 86.5287 14.5222C86.3014 14.0561 85.9559 13.6564 85.5261 13.3623C85.1131 13.1071 84.6362 12.9719 84.1496 12.9719C83.663 12.9719 83.1861 13.1071 82.7731 13.3623C82.3849 13.6422 82.0672 14.0096 81.8202 14.4558C81.5739 14.9434 81.4584 15.4857 81.4849 16.0305C81.4505 16.5471 81.5519 17.0638 81.7793 17.53C82.0066 17.9961 82.3521 18.3958 82.7819 18.6899C83.1967 18.9436 83.6202 19.0836 84.1496 19.0836Z" fill="#555555"/>
        </symbol>
        <symbol id="fedEx" viewBox="0 0 32 32">
            <path d="M59.4909 23.7801L66.1626 16.3923L59.4909 9.00354H66.5302L69.8346 12.5925L73.0165 9.00354H79.8102L73.1702 16.3618L79.9014 23.7801H72.8332L69.5588 20.1616L66.3153 23.7801H59.4909Z" fill="#555555"/>
            <path d="M59.4909 5.69114H51.9347V9.00349H59.4909V13.9955H51.9347V18.5775H59.4909V23.78H46.381V0.503052H59.4909V5.69114Z" fill="#555555"/>
            <path d="M40.8507 0.503052V10.0291H40.7898C39.5654 8.64219 38.0357 8.16023 36.2607 8.16023C32.6249 8.16023 29.8861 10.5961 28.9247 13.8166C27.8284 10.268 25.0009 8.09373 20.8082 8.09373C17.4034 8.09373 14.7147 9.59994 13.3115 12.0543V9.00383H6.27362V5.69182H13.954V0.503052H-0.00012207V23.7804H6.27362V13.9955H12.5268C12.3404 14.7143 12.2409 15.4839 12.2409 16.2959C12.2409 21.1515 16.0047 24.5585 20.8082 24.5585C24.8475 24.5585 27.5094 22.6896 28.9174 19.2823H23.5411C22.8138 20.3059 22.2621 20.6099 20.8082 20.6099C19.1223 20.6099 17.6687 19.1603 17.6687 17.4419H28.6162C29.091 21.2986 32.1394 24.6246 36.3227 24.6246C38.1272 24.6246 39.7794 23.7499 40.7898 22.2728H40.8507V23.7797H46.3811V0.503052H40.8507ZM17.8434 14.0651C18.1922 12.5866 19.3557 11.6203 20.8082 11.6203C22.4072 11.6203 23.5115 12.5568 23.802 14.0651C23.9244 14.0651 17.8434 14.0651 17.8434 14.0651ZM37.4945 20.2359C35.4559 20.2359 34.1891 18.364 34.1891 16.4094C34.1891 14.3201 35.291 12.311 37.4945 12.311C39.7794 12.311 40.6896 14.3201 40.6896 16.4094C40.6893 18.3907 39.7248 20.2359 37.4945 20.2359Z" fill="#555555"/>
         </symbol>
         <symbol id="google" viewBox="0 0 32 32">
            <path d="M36.1462 14.8593C36.1462 18.745 33.0611 21.6083 29.2749 21.6083C25.4887 21.6083 22.4036 18.745 22.4036 14.8593C22.4036 10.9462 25.4887 8.11023 29.2749 8.11023C33.0611 8.11023 36.1462 10.9462 36.1462 14.8593ZM33.1383 14.8593C33.1383 12.4311 31.3502 10.7697 29.2749 10.7697C27.1996 10.7697 25.4115 12.4311 25.4115 14.8593C25.4115 17.2631 27.1996 18.9489 29.2749 18.9489C31.3502 18.9489 33.1383 17.2601 33.1383 14.8593Z" fill="#555555"/>
            <path d="M50.9697 14.8593C50.9697 18.745 47.8846 21.6083 44.0984 21.6083C40.3122 21.6083 37.2271 18.745 37.2271 14.8593C37.2271 10.9492 40.3122 8.11023 44.0984 8.11023C47.8846 8.11023 50.9697 10.9462 50.9697 14.8593ZM47.9618 14.8593C47.9618 12.4311 46.1737 10.7697 44.0984 10.7697C42.0231 10.7697 40.235 12.4311 40.235 14.8593C40.235 17.2631 42.0231 18.9489 44.0984 18.9489C46.1737 18.9489 47.9618 17.2601 47.9618 14.8593Z" fill="#555555"/>
            <path d="M65.1756 8.51797V20.6346C65.1756 25.6188 62.1923 27.6545 58.6656 27.6545C55.3457 27.6545 53.3476 25.4667 52.5941 23.6775L55.2129 22.6034C55.6792 23.7018 56.8219 24.9981 58.6625 24.9981C60.92 24.9981 62.3189 23.6258 62.3189 21.0424V20.0717H62.2139C61.5407 20.8902 60.2436 21.6053 58.6069 21.6053C55.182 21.6053 52.0444 18.6659 52.0444 14.8836C52.0444 11.074 55.182 8.11023 58.6069 8.11023C60.2406 8.11023 61.5376 8.8253 62.2139 9.61949H62.3189V8.52102H65.1756V8.51797ZM62.532 14.8836C62.532 12.5072 60.9231 10.7697 58.8756 10.7697C56.8003 10.7697 55.0616 12.5072 55.0616 14.8836C55.0616 17.2358 56.8003 18.9489 58.8756 18.9489C60.9231 18.9489 62.532 17.2358 62.532 14.8836Z" fill="#555555"/>
            <path d="M69.8852 1.41614V21.1947H66.9514V1.41614H69.8852Z" fill="#555555"/>
            <path d="M81.3179 17.0806L83.6526 18.6142C82.8991 19.7126 81.0832 21.6053 77.9456 21.6053C74.0544 21.6053 71.1484 18.6416 71.1484 14.8562C71.1484 10.8427 74.0791 8.10718 77.609 8.10718C81.1635 8.10718 82.9022 10.8944 83.4704 12.4007L83.7823 13.1675L74.6257 16.9041C75.3268 18.2582 76.4169 18.9489 77.9456 18.9489C79.4774 18.9489 80.5397 18.2064 81.3179 17.0806ZM74.1316 14.6524L80.2525 12.1481C79.9159 11.3052 78.9029 10.7179 77.7109 10.7179C76.1822 10.7179 74.0544 12.0477 74.1316 14.6524Z" fill="#555555"/>
            <path d="M11.2984 13.1036V10.2402H21.0912C21.1869 10.7393 21.2363 11.3296 21.2363 11.9686C21.2363 14.1168 20.6403 16.7733 18.7194 18.6659C16.851 20.5829 14.4638 21.6053 11.3015 21.6053C5.43999 21.6053 0.511169 16.9011 0.511169 11.1257C0.511169 5.35038 5.43999 0.646118 11.3015 0.646118C14.5441 0.646118 16.8541 1.89978 18.5897 3.53379L16.5391 5.55425C15.2946 4.40405 13.6084 3.50945 11.2984 3.50945C7.01808 3.50945 3.67043 6.90832 3.67043 11.1257C3.67043 15.3431 7.01808 18.742 11.2984 18.742C14.0747 18.742 15.6559 17.6435 16.6688 16.6455C17.4903 15.8361 18.0307 14.6798 18.2438 13.1005L11.2984 13.1036Z" fill="#555555"/>
        </symbol>
        <symbol id="hubspot" viewBox="0 0 32 32">
            <path d="M9.2967 4.47583V11.2442H3.12842V4.47583H0.199951V20.6326H3.12842V14.084H9.2967V20.6326H12.2252V4.47583H9.2967Z" fill="#555555"/>
            <path d="M21.5973 15.4091C21.5973 16.0566 21.3421 16.6776 20.8877 17.1354C20.4334 17.5933 19.8172 17.8505 19.1746 17.8505C18.5321 17.8505 17.9159 17.5933 17.4615 17.1354C17.0072 16.6776 16.7519 16.0566 16.7519 15.4091V8.48889H13.9741V15.4091C13.9741 16.7977 14.5215 18.1294 15.4958 19.1113C16.4702 20.0932 17.7917 20.6448 19.1696 20.6448C20.5475 20.6448 21.869 20.0932 22.8434 19.1113C23.8177 18.1294 24.3651 16.7977 24.3651 15.4091V8.48889H21.5973V15.4091Z" fill="#555555"/>
            <path d="M42.1785 9.20256C42.1785 7.7841 43.1097 7.33442 44.1299 7.33442C44.952 7.33442 46.0382 7.96484 46.7484 8.72974L48.5678 6.56953C47.6596 5.33182 45.8172 4.47583 44.3093 4.47583C41.2961 4.47583 39.1166 6.25432 39.1166 9.20256C39.1166 14.6725 45.7512 12.9374 45.7512 15.9984C45.7512 16.9426 44.8416 17.7769 43.7999 17.7769C42.157 17.7769 41.6247 16.9672 40.87 16.1112L38.8512 18.2266C40.1425 19.8243 41.7352 20.6355 43.6435 20.6355C46.506 20.6355 48.8088 18.8353 48.8088 16.0215C48.8088 9.94865 42.1742 11.8356 42.1742 9.20256" fill="#555555"/>
            <path d="M83.2228 18.0507C81.5813 18.0507 81.115 17.335 81.115 16.239V11.3879H83.6661V8.92985H81.115V5.68665L78.2985 6.9605V16.8419C78.2985 19.3694 80.0288 20.6433 82.402 20.6433C82.7742 20.6501 83.1462 20.6201 83.5126 20.5536L84.1999 18.0045C83.8899 18.0262 83.5341 18.0478 83.2228 18.0478" fill="#555555"/>
            <path d="M32.1706 8.57073C30.7946 8.57073 29.8347 8.9727 28.9064 9.89086V4.57275H26.1243V14.4296C26.1243 18.1196 28.7715 20.6471 31.7459 20.6471C35.046 20.6471 37.9486 18.0748 37.9486 14.6104C37.9486 11.1893 35.277 8.57218 32.1706 8.57218V8.57073ZM32.1534 17.8261C31.5291 17.8261 30.9188 17.6395 30.3997 17.29C29.8806 16.9405 29.476 16.4436 29.2371 15.8624C28.9981 15.2811 28.9356 14.6415 29.0574 14.0245C29.1792 13.4074 29.4799 12.8406 29.9213 12.3957C30.3628 11.9509 30.9252 11.6479 31.5376 11.5251C32.1499 11.4024 32.7846 11.4654 33.3614 11.7062C33.9381 11.9469 34.4311 12.3547 34.778 12.8778C35.1248 13.4009 35.31 14.0159 35.31 14.6451C35.31 15.4887 34.9774 16.2978 34.3854 16.8944C33.7935 17.4909 32.9906 17.8261 32.1534 17.8261Z" fill="#555555"/>
            <path d="M62.3791 14.462C62.3791 10.9918 59.4822 8.42529 56.1764 8.42529C53.202 8.42529 50.5548 10.9528 50.5548 14.6428V24.5054H53.3369V19.1801C54.2638 20.0968 55.2251 20.5002 56.5997 20.5002C59.7061 20.5002 62.3777 17.8845 62.3777 14.462H62.3791ZM59.7448 14.4273C59.7448 15.0565 59.5597 15.6715 59.2128 16.1946C58.866 16.7177 58.373 17.1254 57.7962 17.3662C57.2194 17.607 56.5847 17.67 55.9724 17.5472C55.3601 17.4245 54.7976 17.1215 54.3562 16.6766C53.9147 16.2318 53.6141 15.665 53.4923 15.0479C53.3705 14.4308 53.433 13.7912 53.6719 13.21C53.9108 12.6287 54.3154 12.1319 54.8345 11.7824C55.3536 11.4329 55.9639 11.2463 56.5882 11.2463C57.4254 11.2463 58.2283 11.5814 58.8203 12.178C59.4122 12.7745 59.7448 13.5837 59.7448 14.4273Z" fill="#555555"/>
            <path d="M71.367 8.28933V5.47267C71.7364 5.29875 72.0491 5.02267 72.2689 4.67658C72.4886 4.3305 72.6062 3.92864 72.6081 3.51778V3.45272C72.6081 2.87749 72.3814 2.32583 71.9778 1.91908C71.5741 1.51234 71.0267 1.28383 70.4559 1.28383H70.3913C69.8205 1.28383 69.2731 1.51234 68.8695 1.91908C68.4659 2.32583 68.2391 2.87749 68.2391 3.45272V3.51778C68.241 3.92864 68.3587 4.3305 68.5784 4.67658C68.7981 5.02267 69.1109 5.29875 69.4802 5.47267V8.28933C68.4186 8.453 67.4188 8.89644 66.5819 9.57476L58.9171 3.55827C58.9713 3.35987 59.0003 3.15531 59.0032 2.94954C59.004 2.46617 58.8626 1.99342 58.5968 1.59106C58.331 1.1887 57.9528 0.874822 57.5099 0.689121C57.0671 0.50342 56.5796 0.454241 56.109 0.547804C55.6384 0.641366 55.2059 0.873468 54.8663 1.21475C54.5266 1.55603 54.295 1.99116 54.2008 2.4651C54.1065 2.93905 54.1539 3.43051 54.3369 3.87732C54.5198 4.32413 54.8302 4.70623 55.2286 4.97528C55.6271 5.24432 56.0958 5.38824 56.5755 5.38881C56.9949 5.38692 57.4065 5.27425 57.7692 5.06203L65.3178 10.9802C64.6395 12.0126 64.2857 13.2269 64.3023 14.4649C64.3189 15.7029 64.7053 16.9072 65.4111 17.9206L63.1154 20.2341C62.9297 20.1744 62.7363 20.1427 62.5414 20.1401C62.1477 20.1404 61.7628 20.2583 61.4356 20.479C61.1083 20.6996 60.8532 21.013 60.7027 21.3797C60.5521 21.7464 60.5128 22.1498 60.5897 22.539C60.6666 22.9281 60.8562 23.2856 61.1347 23.5662C61.4131 23.8468 61.7678 24.0379 62.154 24.1154C62.5402 24.1929 62.9405 24.1532 63.3043 24.0015C63.6682 23.8498 63.9792 23.5928 64.1982 23.263C64.4171 22.9331 64.5341 22.5453 64.5344 22.1485C64.5319 21.9521 64.5005 21.7572 64.4411 21.5701L66.7125 19.2812C67.4531 19.8556 68.3143 20.2515 69.2302 20.4386C70.1461 20.6258 71.0924 20.5992 71.9965 20.3609C72.9006 20.1227 73.7386 19.679 74.4464 19.064C75.1541 18.4489 75.7127 17.6788 76.0795 16.8126C76.4463 15.9464 76.6115 15.0071 76.5625 14.0667C76.5134 13.1262 76.2515 12.2095 75.7966 11.3868C75.3417 10.5641 74.7061 9.85728 73.9383 9.32038C73.1705 8.78349 72.2909 8.4308 71.367 8.28933ZM70.4258 17.5519C69.8045 17.5513 69.1973 17.3652 68.681 17.017C68.1646 16.6687 67.7623 16.1741 67.5249 15.5955C67.2875 15.0169 67.2256 14.3804 67.347 13.7663C67.4685 13.1523 67.7678 12.5884 68.2072 12.1457C68.6467 11.7031 69.2064 11.4017 69.8158 11.2796C70.4252 11.1575 71.0568 11.2201 71.6308 11.4597C72.2048 11.6992 72.6955 12.1049 73.0408 12.6253C73.3861 13.1458 73.5706 13.7578 73.5709 14.3839C73.5709 15.2237 73.2398 16.0292 72.6505 16.623C72.0613 17.2169 71.262 17.5505 70.4286 17.5505" fill="#555555"/>
        </symbol>
        <symbol id="microsoft" viewBox="0 0 32 32">
            <path d="M43.6634 15.476L42.9363 17.5314H42.8757C42.7545 17.0679 42.5323 16.3626 42.1687 15.5163L38.2704 5.7431H34.4528V21.3198H36.9777V11.7078C36.9777 11.1033 36.9777 10.4181 36.9575 9.57178C36.9373 9.14861 36.8969 8.8262 36.8767 8.58438H36.9373C37.0584 9.18891 37.1998 9.63223 37.3008 9.91435L41.9869 21.2795H43.7644L48.4101 9.81359C48.5111 9.55163 48.6121 9.0277 48.7131 8.58438H48.7737C48.7131 9.73299 48.6727 10.7607 48.6525 11.3854V21.2593H51.3389V5.7028H47.6628L43.6634 15.476ZM53.8839 10.0957H56.5098V21.2593H53.8839V10.0957ZM55.2171 5.38039C54.7727 5.38039 54.4091 5.54159 54.1061 5.82371C53.8031 6.10582 53.6416 6.46854 53.6416 6.91186C53.6416 7.33503 53.8031 7.69774 54.1061 7.97986C54.4091 8.26197 54.7727 8.40303 55.2171 8.40303C55.6614 8.40303 56.0452 8.24182 56.328 7.97986C56.631 7.69774 56.7926 7.33503 56.7926 6.91186C56.7926 6.48869 56.631 6.12597 56.328 5.82371C56.0654 5.54159 55.6816 5.38039 55.2171 5.38039ZM65.8214 9.99495C65.3366 9.89419 64.8316 9.83374 64.3469 9.83374C63.1551 9.83374 62.0644 10.0957 61.1555 10.6196C60.2465 11.1436 59.5194 11.869 59.0548 12.7758C58.57 13.7027 58.3276 14.7707 58.3276 15.9999C58.3276 17.0679 58.57 18.015 59.0346 18.8815C59.4992 19.7278 60.1455 20.413 61.0141 20.8765C61.8422 21.3399 62.8118 21.5817 63.9025 21.5817C65.1548 21.5817 66.2253 21.3198 67.0737 20.8361L67.0939 20.816V18.3979L66.9929 18.4785C66.6091 18.7606 66.1647 19.0024 65.7204 19.1435C65.2558 19.3047 64.8316 19.3853 64.4681 19.3853C63.4177 19.3853 62.5896 19.083 62.0038 18.418C61.3978 17.7732 61.0949 16.8866 61.0949 15.7783C61.0949 14.6297 61.3979 13.7229 62.024 13.0579C62.6502 12.3929 63.4783 12.0503 64.4882 12.0503C65.3366 12.0503 66.2051 12.3325 66.9929 12.8967L67.0939 12.9773V10.4181L67.0737 10.398C66.7303 10.2569 66.3465 10.0957 65.8214 9.99495ZM74.4866 9.91435C73.8402 9.91435 73.2343 10.1159 72.7091 10.539C72.2647 10.9017 71.9618 11.4257 71.6992 12.0503H71.679V10.0957H69.0531V21.2593H71.679V15.5566C71.679 14.5894 71.881 13.7833 72.3253 13.1989C72.7697 12.5944 73.3353 12.2922 74.022 12.2922C74.2644 12.2922 74.5068 12.3526 74.8098 12.3929C75.0925 12.4735 75.2945 12.5541 75.4359 12.6549L75.5369 12.7355V10.1159L75.4763 10.0957C75.2945 9.9748 74.931 9.91435 74.4866 9.91435ZM81.6369 9.85389C79.7988 9.85389 78.3243 10.398 77.2942 11.466C76.2439 12.534 75.7389 14.005 75.7389 15.8589C75.7389 17.5918 76.2641 19.0024 77.274 20.0301C78.2839 21.0377 79.6574 21.5616 81.3743 21.5616C83.172 21.5616 84.6061 21.0175 85.6363 19.9294C86.6866 18.8412 87.1916 17.3903 87.1916 15.5969C87.1916 13.8236 86.7068 12.4131 85.717 11.3854C84.7677 10.3577 83.374 9.85389 81.6369 9.85389ZM83.7376 18.4382C83.2528 19.0629 82.4853 19.3651 81.5359 19.3651C80.5866 19.3651 79.819 19.0629 79.2737 18.3979C78.7283 17.7732 78.4657 16.8664 78.4657 15.7178C78.4657 14.5289 78.7485 13.6221 79.2737 12.9773C79.819 12.3325 80.5664 12.01 81.5157 12.01C82.4449 12.01 83.172 12.3123 83.6972 12.937C84.2223 13.5617 84.5051 14.4685 84.5051 15.6574C84.4647 16.8664 84.2425 17.8135 83.7376 18.4382ZM93.0492 14.7304C92.221 14.3879 91.6959 14.1259 91.4535 13.9042C91.2515 13.7027 91.1505 13.4206 91.1505 13.0579C91.1505 12.7556 91.2717 12.4534 91.5747 12.2519C91.8776 12.0503 92.221 11.9496 92.726 11.9496C93.1704 11.9496 93.6349 12.0302 94.0793 12.1511C94.5237 12.272 94.9276 12.4534 95.2508 12.6952L95.3518 12.7758V10.3174L95.2912 10.2972C94.9882 10.1763 94.5843 10.0554 94.0995 9.95465C93.6147 9.87404 93.1704 9.83374 92.8068 9.83374C91.5545 9.83374 90.5243 10.136 89.7164 10.801C88.9084 11.4257 88.5247 12.272 88.5247 13.2594C88.5247 13.7833 88.6055 14.2468 88.7873 14.6297C88.969 15.0125 89.2316 15.3752 89.5952 15.6775C89.9588 15.9596 90.4839 16.282 91.2111 16.5843C91.8171 16.8463 92.2816 17.0478 92.5644 17.209C92.8472 17.3702 93.029 17.5515 93.1704 17.6926C93.2714 17.8538 93.332 18.0553 93.332 18.3173C93.332 19.0629 92.7664 19.4256 91.6151 19.4256C91.1707 19.4256 90.7061 19.345 90.1608 19.1636C89.6154 18.9823 89.1104 18.7203 88.6863 18.418L88.5853 18.3374V20.8966L88.6459 20.9168C89.0296 21.0981 89.4942 21.219 90.0598 21.3601C90.6253 21.4608 91.1303 21.5414 91.5747 21.5414C92.928 21.5414 94.0389 21.2392 94.8267 20.5742C95.6346 19.9294 96.0588 19.1032 96.0588 18.0352C96.0588 17.2896 95.8568 16.6246 95.4124 16.1208C94.8267 15.6372 94.0995 15.1334 93.0492 14.7304ZM102.987 9.85389C101.149 9.85389 99.6743 10.398 98.6442 11.466C97.6141 12.534 97.0889 14.005 97.0889 15.8589C97.0889 17.5918 97.6141 19.0024 98.624 20.0301C99.6339 21.0377 101.007 21.5616 102.724 21.5616C104.522 21.5616 105.956 21.0175 106.986 19.9294C108.037 18.8412 108.542 17.3903 108.542 15.5969C108.542 13.8236 108.057 12.4131 107.067 11.3854C106.118 10.3577 104.724 9.85389 102.987 9.85389ZM105.067 18.4382C104.583 19.0629 103.815 19.3651 102.866 19.3651C101.896 19.3651 101.149 19.0629 100.603 18.3979C100.058 17.7732 99.7955 16.8664 99.7955 15.7178C99.7955 14.5289 100.078 13.6221 100.603 12.9773C101.149 12.3325 101.896 12.01 102.846 12.01C103.754 12.01 104.502 12.3123 105.027 12.937C105.552 13.5617 105.835 14.4685 105.835 15.6574C105.835 16.8664 105.572 17.8135 105.067 18.4382ZM122.58 12.2519V10.0957H119.934V6.79095L119.853 6.8111L117.348 7.55669L117.288 7.57684V10.0957H113.329V8.68514C113.329 8.04031 113.49 7.53654 113.773 7.21412C114.056 6.89171 114.48 6.7305 115.005 6.7305C115.369 6.7305 115.752 6.8111 116.177 6.99246L116.278 7.05291V4.77586L116.217 4.75571C115.853 4.6348 115.369 4.5542 114.743 4.5542C113.955 4.5542 113.268 4.73556 112.642 5.03782C112.016 5.38039 111.551 5.84386 111.208 6.46854C110.864 7.07307 110.683 7.7582 110.683 8.54408V10.0957H108.845V12.2317H110.683V21.2593H113.329V12.2519H117.288V17.9949C117.288 20.3525 118.399 21.5414 120.62 21.5414C120.984 21.5414 121.368 21.481 121.731 21.4205C122.115 21.3399 122.398 21.2392 122.559 21.1586L122.58 21.1384V18.9823L122.479 19.0629C122.317 19.1636 122.176 19.2442 121.933 19.3047C121.731 19.3651 121.549 19.3853 121.408 19.3853C120.883 19.3853 120.519 19.2644 120.257 18.9621C120.014 18.68 119.893 18.2165 119.893 17.5314V12.2519H122.58Z" fill="#555555"/>
            <path d="M0.599854 0.503052H12.9816V12.8556H0.599854V0.503052Z" fill="#555555"/>
            <path d="M14.2742 0.503052H26.656V12.8556H14.2742V0.503052Z" fill="#555555"/>
            <path d="M0.599854 14.1453H12.9816V26.4978H0.599854V14.1453Z" fill="#555555"/>
            <path d="M14.2742 14.1453H26.656V26.4978H14.2742V14.1453Z" fill="#555555"/>
        </symbol>
        <symbol id="walmart" viewBox="0 0 32 32">
            <path d="M40.3018 9.74899V11.2222H40.3468C40.877 10.4334 41.7572 9.50455 43.7083 9.50455C45.2261 9.50455 46.3905 10.277 46.8895 11.4438H46.9345C47.3608 10.8539 47.8494 10.4074 48.3969 10.0912C49.0449 9.7164 49.7657 9.50129 50.6737 9.50129C52.7286 9.50129 54.548 10.8376 54.548 14.2076V20.599H51.4153V14.6542C51.4153 12.9463 50.7984 11.9588 49.5162 11.9588C48.5771 11.9588 47.8944 12.5519 47.6345 13.282C47.5444 13.533 47.5028 13.8752 47.5028 14.162V20.6023H44.3701V14.413C44.3701 12.9626 43.7776 11.9555 42.5127 11.9555C41.5008 11.9555 40.8666 12.7051 40.6067 13.3472C40.4958 13.621 40.4612 13.9371 40.4612 14.2337V20.599H37.325V9.74899H40.3018ZM70.7175 9.74899V11.7958H70.8041C71.3793 10.2314 72.7447 9.50455 73.9437 9.50455C74.2452 9.50455 74.4116 9.52737 74.6541 9.573V12.4151C74.3665 12.3759 74.0997 12.3368 73.7254 12.3368C72.367 12.3368 71.4209 13.0799 71.1818 14.2435C71.1298 14.4847 71.1125 14.7454 71.1125 15.0453V20.6023H67.8966V9.74899H70.7175ZM79.0205 6.15405V9.56974H81.7374V12.3336H79.0205V16.4109C79.0205 17.7309 79.3774 18.3697 80.4379 18.3697C80.9369 18.3697 81.3042 18.311 81.623 18.2361L81.6646 20.5273C81.2384 20.6772 80.3304 20.8402 79.4086 20.8402C78.324 20.8402 77.4195 20.4849 76.8685 19.9341C76.2378 19.3051 75.9467 18.2752 75.9467 16.8085V6.15405H79.0205ZM35.1418 20.599H32.023V6.15405H35.1418V20.599ZM26.8249 16.7238C26.8249 16.9226 26.8076 17.1312 26.7487 17.3104C26.5061 18.0633 25.6779 18.6989 24.6452 18.6989C23.7823 18.6989 23.0961 18.2393 23.0961 17.2648C23.0961 15.7753 24.8427 15.3614 26.8284 15.3712V16.7238H26.8249ZM29.9403 14.1262C29.9403 11.6654 28.8244 9.50455 25.0506 9.50455C23.1135 9.50455 21.5748 10.0163 20.7362 10.4725L21.3496 12.4476C22.1154 11.9914 23.3387 11.6165 24.4962 11.6165C26.4125 11.6133 26.7244 12.6367 26.7244 13.2918V13.4482C22.5486 13.4417 19.9115 14.8008 19.9115 17.5712C19.9115 19.2627 21.2526 20.8467 23.5882 20.8467C25.0264 20.8467 26.2254 20.3089 26.9462 19.4452H27.0155C27.0155 19.4452 27.4937 21.3193 30.1205 20.6023C29.9819 19.82 29.9368 18.9889 29.9368 17.9884V14.1262H29.9403ZM4.24446 6.15405C4.56674 7.68264 5.4816 12.1217 5.4816 12.1217C5.86626 13.9469 6.21973 15.8601 6.48656 17.3724H6.53508C6.79498 15.7656 7.2039 14.2435 7.64053 12.3596L9.18263 6.15405H12.596L14.0376 12.5193C14.4154 14.2891 14.7168 15.6547 14.956 17.3007H15.001C15.2609 15.6384 15.6005 14.2174 15.9713 12.3988L17.3575 6.15405H20.6323L16.5743 20.599C13.9891 21.1303 12.998 20.1525 12.6445 18.6011C12.2911 17.0464 11.598 14.0903 11.598 14.0903C11.2411 12.4705 10.9638 11.3297 10.7698 9.66751H10.7213C10.444 11.3134 10.1529 12.4672 9.72323 14.087L8.02173 20.6023C5.3811 21.0977 4.46624 20.3643 3.9603 18.3729C3.52366 16.6684 0.799866 6.15731 0.799866 6.15731H4.24446V6.15405ZM62.6986 16.7238C62.6986 16.9226 62.6812 17.1312 62.6223 17.3104C62.3797 18.0633 61.5515 18.6989 60.5188 18.6989C59.6559 18.6989 58.9698 18.2393 58.9698 17.2648C58.9698 15.7753 60.7164 15.3614 62.702 15.3712V16.7238H62.6986ZM65.8139 14.1262C65.8139 11.6654 64.6981 9.50455 60.9243 9.50455C58.9871 9.50455 57.4485 10.0163 56.6099 10.4725L57.2232 12.4476C57.9891 11.9914 59.2124 11.6165 60.3698 11.6165C62.2827 11.6133 62.5981 12.6367 62.5981 13.2918V13.4482C58.4257 13.4417 55.7886 14.8008 55.7886 17.5712C55.7886 19.2627 57.1331 20.8467 59.4654 20.8467C60.9 20.8467 62.1025 20.3089 62.8198 19.4452H62.8926C62.8926 19.4452 63.3708 21.3193 65.9976 20.6023C65.859 19.82 65.8139 18.9889 65.8139 17.9884V14.1262Z" fill="#555555"/>
            <path d="M94.3801 15.6241C94.6875 16.1516 94.6668 16.7404 94.3387 17.0092L88.6668 20.9265C88.0761 21.2634 87.1918 20.855 86.6909 20.0008C86.1866 19.1431 86.2764 18.1868 86.8671 17.8499L93.1469 14.9706C93.5407 14.8209 94.0727 15.0966 94.3801 15.6241ZM101.845 15.6241C102.156 15.0966 102.684 14.8243 103.078 14.9672L109.361 17.8465C109.952 18.1834 110.038 19.1397 109.537 19.9974C109.033 20.8516 108.145 21.2566 107.558 20.9231L101.886 17.0058C101.561 16.7404 101.537 16.1482 101.845 15.6241ZM98.1107 17.7478C98.729 17.7478 99.2368 18.0609 99.3059 18.4727L99.9173 25.2725C99.9173 25.9464 99.1193 26.4977 98.1141 26.4977C97.1124 26.4977 96.311 25.9464 96.311 25.2725L96.919 18.4727C96.9881 18.0609 97.4958 17.7478 98.1107 17.7478ZM101.886 9.99496L107.558 6.07432C108.145 5.73739 109.033 6.14238 109.537 7.00002C110.038 7.85767 109.952 8.814 109.361 9.15093L103.078 12.0336C102.684 12.1765 102.152 11.9042 101.845 11.3767C101.537 10.8492 101.561 10.2604 101.886 9.99496ZM93.1469 12.0336L86.8671 9.15093C86.2799 8.814 86.1901 7.85767 86.6909 7.00002C87.1918 6.14238 88.0795 5.73739 88.6668 6.07432L94.3387 9.99496C94.6668 10.257 94.6875 10.8492 94.3801 11.3767C94.0727 11.9042 93.5407 12.1765 93.1469 12.0336ZM96.919 8.52812L96.311 1.72825C96.311 1.05439 97.109 0.503052 98.1141 0.503052C99.1193 0.503052 99.9173 1.05439 99.9173 1.72825L99.3059 8.52812C99.2368 8.93652 98.729 9.25303 98.1107 9.25303C97.4958 9.25303 96.9881 8.93652 96.919 8.52812ZM111.071 20.8993V20.7291H111.226C111.278 20.7291 111.313 20.7631 111.313 20.8142C111.313 20.8618 111.278 20.8993 111.226 20.8993H111.071ZM110.943 21.209C110.943 21.226 110.957 21.243 110.978 21.243H111.043C111.061 21.243 111.078 21.226 111.078 21.209V21.015H111.185L111.271 21.2192C111.278 21.2328 111.289 21.243 111.302 21.243H111.382C111.406 21.243 111.423 21.2192 111.413 21.1953C111.382 21.1341 111.351 21.0694 111.32 21.0048C111.372 20.9877 111.451 20.9367 111.451 20.8142C111.451 20.6848 111.344 20.61 111.237 20.61H110.978C110.96 20.61 110.943 20.627 110.943 20.644V21.209ZM110.663 20.9265C110.663 20.6508 110.891 20.4262 111.171 20.4262C111.451 20.4262 111.679 20.6474 111.679 20.9265C111.679 21.2022 111.454 21.4268 111.171 21.4268C110.888 21.4268 110.663 21.2022 110.663 20.9265ZM110.543 20.9265C110.543 21.2668 110.822 21.5459 111.171 21.5459C111.517 21.5459 111.8 21.2668 111.8 20.9265C111.8 20.5861 111.517 20.3071 111.171 20.3071C110.822 20.3071 110.543 20.5861 110.543 20.9265Z" fill="#555555"/>
        </symbol>

        <symbol id="header-menu" viewBox="0 0 32 32">
            <path d="M16 18V20H5V18H16ZM21 11V13H3V11H21ZM19 4V6H8V4H19Z" fill="#222222"/>
        </symbol>
        <symbol id="header-buy" viewBox="0 0 32 32">
            <path fill-rule="evenodd" clip-rule="evenodd" d="M5.42229 17.8203C5.84429 17.8203 6.18729 18.1633 6.18729 18.5853C6.18729 19.0073 5.84429 19.3493 5.42229 19.3493C5.00029 19.3493 4.65829 19.0073 4.65829 18.5853C4.65829 18.1633 5.00029 17.8203 5.42229 17.8203Z" stroke="#222222" stroke-width="1.5" stroke-linecap="round" stroke-linejoin="round"/>
            <path fill-rule="evenodd" clip-rule="evenodd" d="M16.6747 17.8203C17.0967 17.8203 17.4397 18.1633 17.4397 18.5853C17.4397 19.0073 17.0967 19.3493 16.6747 19.3493C16.2527 19.3493 15.9097 19.0073 15.9097 18.5853C15.9097 18.1633 16.2527 17.8203 16.6747 17.8203Z" stroke="#222222" stroke-width="1.5" stroke-linecap="round" stroke-linejoin="round"/>
            <path d="M0.749893 1.25L2.82989 1.61L3.79289 13.083C3.87089 14.018 4.65189 14.736 5.58989 14.736H16.5019C17.3979 14.736 18.1579 14.078 18.2869 13.19L19.2359 6.632C19.3529 5.823 18.7259 5.099 17.9089 5.099H3.16389" stroke="#222222" stroke-width="1.5" stroke-linecap="round" stroke-linejoin="round"/>
            <path d="M12.1254 8.79492H14.8984" stroke="#222222" stroke-width="1.5" stroke-linecap="round" stroke-linejoin="round"/>
        </symbol>
        <symbol id="header-profile" viewBox="0 0 32 32">
            <circle cx="11.579" cy="7.27803" r="4.77803" stroke="#222222" stroke-width="1.5" stroke-linecap="round" stroke-linejoin="round"/>
            <path fill-rule="evenodd" clip-rule="evenodd" d="M4.00002 18.7013C3.99873 18.3654 4.07385 18.0336 4.2197 17.7311C4.67736 16.8157 5.96798 16.3306 7.03892 16.1109C7.81128 15.9461 8.59431 15.836 9.38217 15.7814C10.8408 15.6533 12.3079 15.6533 13.7666 15.7814C14.5544 15.8366 15.3374 15.9467 16.1099 16.1109C17.1808 16.3306 18.4714 16.77 18.9291 17.7311C19.2224 18.3479 19.2224 19.0639 18.9291 19.6807C18.4714 20.6418 17.1808 21.0812 16.1099 21.2917C15.3384 21.4633 14.5551 21.5766 13.7666 21.6304C12.5794 21.731 11.3866 21.7494 10.1968 21.6853C9.92221 21.6853 9.65677 21.6853 9.38217 21.6304C8.59663 21.5772 7.81632 21.464 7.04807 21.2917C5.96798 21.0812 4.68652 20.6418 4.2197 19.6807C4.0746 19.3746 3.99955 19.04 4.00002 18.7013Z" stroke="#222222" stroke-width="1.5" stroke-linecap="round" stroke-linejoin="round"/>
        </symbol>

        <symbol id="search" viewBox="0 0 16 16">
            <rect x="0" y="0" width="16" height="16" fill="#402F2C"/> <!-- Коричневий квадрат -->
            <circle cx="7" cy="7" r="6" stroke="white" stroke-width="1.5" stroke-linecap="round" stroke-linejoin="round"/>
            <path d="M11.0122 11.3235L13.3616 13.6667" stroke="white" stroke-width="1.5" stroke-linecap="round" stroke-linejoin="round"/>
        </symbol>

        <symbol id="frame" viewBox="0 0 32 32">
                <path d="M16.172 11L10.808 5.63605L12.222 4.22205L20 12L12.222 19.778L10.808 18.364L16.172 13H4V11H16.172Z" fill="black"/>
        </symbol>

        <symbol id="buttom-sviperR" viewBox="0 0 32 32">
            <circle cx="16" cy="16" r="15.5" stroke="#6FB587"/>
            <path d="M14 12L18 16L14 20" stroke="#6FB587" stroke-width="1.5" stroke-linecap="round" stroke-linejoin="round"/>
        </symbol>
        <symbol id="buttom-sviperL" viewBox="0 0 32 32">
            <circle cx="16" cy="16" r="15.5" stroke="#6FB587" stroke-opacity="0.15"/>
            <path d="M14 12L18 16L14 20" stroke="#6FB587" stroke-opacity="0.15" stroke-width="1.5" stroke-linecap="round" stroke-linejoin="round"/>
        </symbol>

        <symbol id="star" viewBox="0 0 32 32">
            <path d="M15.9185 12.3201C15.6595 12.5711 15.5405 12.9341 15.5995 13.2901L16.4885 18.2101C16.5635 18.6271 16.3875 19.0491 16.0385 19.2901C15.6965 19.5401 15.2415 19.5701 14.8685 19.3701L10.4395 17.0601C10.2855 16.9781 10.1145 16.9341 9.93951 16.9291H9.66851C9.57451 16.9431 9.48251 16.9731 9.39851 17.0191L4.96851 19.3401C4.74951 19.4501 4.50151 19.4891 4.25851 19.4501C3.66651 19.3381 3.27151 18.7741 3.36851 18.1791L4.25851 13.2591C4.31751 12.9001 4.19851 12.5351 3.93951 12.2801L0.32851 8.78012C0.0265096 8.48712 -0.0784904 8.04712 0.0595096 7.65012C0.19351 7.25412 0.53551 6.96512 0.94851 6.90012L5.91851 6.17912C6.29651 6.14012 6.62851 5.91012 6.79851 5.57012L8.98851 1.08012C9.04051 0.980122 9.10751 0.888122 9.18851 0.810122L9.27851 0.740122C9.32551 0.688122 9.37951 0.645122 9.43951 0.610122L9.54851 0.570122L9.71851 0.500122H10.1395C10.5155 0.539122 10.8465 0.764122 11.0195 1.10012L13.2385 5.57012C13.3985 5.89712 13.7095 6.12412 14.0685 6.17912L19.0385 6.90012C19.4585 6.96012 19.8095 7.25012 19.9485 7.65012C20.0795 8.05112 19.9665 8.49112 19.6585 8.78012L15.9185 12.3201Z" fill="#FFC046"/>
        </symbol>
        <symbol id="star-half" viewBox="0 0 32 32">
            <path opacity="0.4" d="M10.9763 1.11361L13.2028 5.58789C13.3668 5.91205 13.6799 6.13717 14.041 6.18719L19.042 6.91556C19.3341 6.95658 19.5992 7.11066 19.7782 7.34578C19.9552 7.5779 20.0312 7.87205 19.9882 8.1612C19.9532 8.40132 19.8402 8.62343 19.6672 8.79352L16.0434 12.3063C15.7783 12.5514 15.6583 12.9146 15.7223 13.2698L16.6145 18.2083C16.7095 18.8046 16.3144 19.3669 15.7223 19.48C15.4783 19.519 15.2282 19.478 15.0082 19.3659L10.5472 17.0417C10.2161 16.8746 9.82505 16.8746 9.49398 17.0417L5.03303 19.3659C4.48491 19.657 3.80576 19.4589 3.5007 18.9187C3.38767 18.7036 3.34766 18.4584 3.38467 18.2193L4.27686 13.2798C4.34088 12.9256 4.21985 12.5604 3.95579 12.3153L0.332017 8.80452C-0.0990758 8.38831 -0.112079 7.70296 0.30301 7.27175C0.312012 7.26274 0.322015 7.25274 0.332017 7.24273C0.504054 7.06764 0.730102 6.95658 0.974155 6.92757L5.97523 6.1982C6.33531 6.14717 6.64837 5.92406 6.81341 5.59789L8.95987 1.11361C9.15091 0.729419 9.547 0.490297 9.97709 0.500302H10.1111C10.4842 0.545325 10.8093 0.776443 10.9763 1.11361Z" fill="#FFC046"/>
            <path d="M9.99201 16.9171C9.79831 16.9231 9.6096 16.9752 9.43987 17.0682L5.00072 19.3871C4.45756 19.6464 3.80756 19.4452 3.50303 18.9258C3.39021 18.7136 3.34927 18.4704 3.38721 18.2322L4.27384 13.3032C4.33375 12.9449 4.21394 12.5806 3.95334 12.3284L0.327937 8.81848C-0.102398 8.39713 -0.110386 7.70556 0.310963 7.27421C0.316954 7.26821 0.321947 7.2632 0.327937 7.2582C0.499672 7.08806 0.72133 6.97597 0.959961 6.94094L5.96523 6.20433C6.32767 6.1583 6.64219 5.93211 6.80194 5.60384L8.97758 1.06312C9.18426 0.696818 9.58065 0.478639 10 0.501658C9.99201 0.798902 9.99201 16.715 9.99201 16.9171Z" fill="#FFC046"/>
        </symbol>

        <symbol id="open" viewBox="0 0 17 15">
            <path d="M9.18545 9.40364C9.18545 7.44 9.79636 5.63636 11.0182 3.99273C12.2545 2.33454 13.8255 1.00363 15.7309 0L16.8 1.35273C15.8255 2.13818 14.9673 3.01091 14.2255 3.97091C13.4982 4.93091 13.1345 5.89091 13.1345 6.85091C13.1345 7.38909 13.2364 7.75273 13.44 7.94182C13.6582 8.13091 13.9345 8.32 14.2691 8.50909C14.6764 8.75636 15.0618 9.11273 15.4255 9.57818C15.7891 10.0291 15.9709 10.6182 15.9709 11.3455C15.9709 12.2036 15.6873 12.9309 15.12 13.5273C14.5527 14.1091 13.8182 14.4 12.9164 14.4C11.9273 14.4 11.0545 13.9855 10.2982 13.1564C9.55636 12.3273 9.18545 11.0764 9.18545 9.40364ZM0 9.40364C0 7.44 0.610909 5.63636 1.83273 3.99273C3.06909 2.33454 4.64 1.00363 6.54545 0L7.61455 1.35273C6.64 2.13818 5.78182 3.01091 5.04 3.97091C4.31273 4.93091 3.94909 5.89091 3.94909 6.85091C3.94909 7.38909 4.05091 7.75273 4.25455 7.94182C4.47273 8.13091 4.74909 8.32 5.08364 8.50909C5.49091 8.75636 5.87636 9.11273 6.24 9.57818C6.60364 10.0291 6.78545 10.6182 6.78545 11.3455C6.78545 12.2036 6.50182 12.9309 5.93455 13.5273C5.36727 14.1091 4.63273 14.4 3.73091 14.4C2.74182 14.4 1.86909 13.9855 1.11273 13.1564C0.370909 12.3273 0 11.0764 0 9.40364Z" fill="#6FB587"/>
        </symbol>
        <symbol id="closed" viewBox="0 0 17 15">
            <path d="M7.61459 9.40364C7.61459 7.44 7.00368 5.63636 5.78187 3.99273C4.5455 2.33454 2.97459 1.00363 1.06914 0L4.95911e-05 1.35273C0.974595 2.13818 1.83278 3.01091 2.57459 3.97091C3.30187 4.93091 3.6655 5.89091 3.6655 6.85091C3.6655 7.38909 3.56369 7.75273 3.36005 7.94182C3.14187 8.13091 2.8655 8.32 2.53096 8.50909C2.12369 8.75636 1.73823 9.11273 1.3746 9.57818C1.01096 10.0291 0.82914 10.6182 0.82914 11.3455C0.82914 12.2036 1.11277 12.9309 1.68005 13.5273C2.24732 14.1091 2.98187 14.4 3.88369 14.4C4.87278 14.4 5.7455 13.9855 6.50187 13.1564C7.24368 12.3273 7.61459 11.0764 7.61459 9.40364ZM16.8 9.40364C16.8 7.44 16.1891 5.63636 14.9673 3.99273C13.731 2.33454 12.16 1.00363 10.2546 0L9.1855 1.35273C10.16 2.13818 11.0182 3.01091 11.76 3.97091C12.4873 4.93091 12.851 5.89091 12.851 6.85091C12.851 7.38909 12.7491 7.75273 12.5455 7.94182C12.3273 8.13091 12.051 8.32 11.7164 8.50909C11.3091 8.75636 10.9237 9.11273 10.56 9.57818C10.1964 10.0291 10.0146 10.6182 10.0146 11.3455C10.0146 12.2036 10.2982 12.9309 10.8655 13.5273C11.4328 14.1091 12.1673 14.4 13.0691 14.4C14.0582 14.4 14.931 13.9855 15.6873 13.1564C16.4291 12.3273 16.8 11.0764 16.8 9.40364Z" fill="#6FB587"/>
        </symbol>
    </defs>
</svg>
